<svg width="3000" height="1130" viewBox="0 0 3000 1130" fill="none" xmlns="http://www.w3.org/2000/svg">
<path d="M0 1118.64V11.3568H172.883C210.697 11.3568 241.259 26.4992 264.569 56.7839C288.138 87.0687 305.361 129.42 316.239 183.838C327.117 237.783 332.556 301.191 332.556 374.064C332.556 444.098 327.894 505.85 318.57 559.322C309.246 612.793 293.577 654.671 271.562 684.956C249.806 715.241 220.021 730.383 182.207 730.383H134.421V1118.64H0ZM134.421 506.087H142.191C167.573 506.087 183.113 493.784 188.811 469.177C194.509 444.571 197.358 411.447 197.358 369.805C197.358 331.476 194.509 300.245 188.811 276.112C183.372 251.505 170.293 239.202 149.573 239.202H134.421V506.087Z" fill="white"/>
<path d="M539.239 1130C483.294 1130 441.207 1099.24 412.976 1037.73C384.745 975.737 370.629 889.142 370.629 777.94V326.508C370.629 219.091 385.004 137.938 413.753 83.0465C442.761 27.6822 484.589 0 539.239 0C594.147 0 635.975 27.6822 664.724 83.0465C693.473 137.938 707.848 219.091 707.848 326.508V777.94C707.848 889.142 693.732 975.737 665.501 1037.73C637.27 1099.24 595.183 1130 539.239 1130ZM540.404 907.123C553.354 907.123 561.772 896.476 565.657 875.182C569.542 853.415 571.484 827.389 571.484 797.104V315.151C571.484 292.91 569.801 272.09 566.434 252.688C563.067 232.814 554.649 222.877 541.181 222.877C527.972 222.877 518.907 232.104 513.986 250.559C509.324 268.541 506.993 290.781 506.993 317.28V798.524C506.993 831.175 509.065 857.437 513.209 877.312C517.353 897.186 526.418 907.123 540.404 907.123Z" fill="white"/>
<path d="M763.015 1118.64V11.3568H968.92C1003.89 11.3568 1030.56 24.843 1048.95 51.8153C1067.6 78.7877 1080.29 115.934 1087.02 163.254C1093.76 210.101 1097.13 263.809 1097.13 324.378C1097.13 400.563 1091.43 460.896 1080.03 505.377C1068.64 549.858 1050.25 580.379 1024.86 596.941C1047.92 603.566 1064.23 622.494 1073.82 653.725C1083.66 684.956 1088.58 726.124 1088.58 777.23V1118.64H952.991V760.905C952.991 724.468 948.847 701.991 940.559 693.474C932.53 684.483 919.451 679.987 901.321 679.987V1118.64H763.015ZM902.098 463.499H935.12C954.027 463.499 963.481 426.589 963.481 352.77C963.481 308.289 961.409 278.951 957.265 264.755C953.121 250.086 945.351 242.751 933.955 242.751H902.098V463.499Z" fill="white"/>
<path d="M1200.85 1118.64V251.269H1119.66V11.3568H1418.8V251.269H1337.61V1118.64H1200.85Z" fill="white"/>
<path d="M1456.88 1118.64V11.3568H1730.38V252.688H1595.96V453.562H1724.94V688.505H1595.96V1118.64H1456.88Z" fill="white"/>
<path d="M1947.94 1130C1892 1130 1849.91 1099.24 1821.68 1037.73C1793.45 975.737 1779.33 889.142 1779.33 777.94V326.508C1779.33 219.091 1793.71 137.938 1822.46 83.0465C1851.46 27.6822 1893.29 0 1947.94 0C2002.85 0 2044.68 27.6822 2073.43 83.0465C2102.18 137.938 2116.55 219.091 2116.55 326.508V777.94C2116.55 889.142 2102.43 975.737 2074.2 1037.73C2045.97 1099.24 2003.89 1130 1947.94 1130ZM1949.11 907.123C1962.06 907.123 1970.47 896.476 1974.36 875.182C1978.24 853.415 1980.19 827.389 1980.19 797.104V315.151C1980.19 292.91 1978.5 272.09 1975.14 252.688C1971.77 232.814 1963.35 222.877 1949.88 222.877C1936.67 222.877 1927.61 232.104 1922.69 250.559C1918.03 268.541 1915.7 290.781 1915.7 317.28V798.524C1915.7 831.175 1917.77 857.437 1921.91 877.312C1926.06 897.186 1935.12 907.123 1949.11 907.123Z" fill="white"/>
<path d="M2165.5 1118.64V11.3568H2297.59V1118.64H2165.5Z" fill="white"/>
<path d="M2351.98 1118.64V11.3568H2488.73V905.704H2629.37V1118.64H2351.98Z" fill="white"/>
<path d="M2831.39 1130C2775.45 1130 2733.36 1099.24 2705.13 1037.73C2676.9 975.737 2662.78 889.142 2662.78 777.94V326.508C2662.78 219.091 2677.16 137.938 2705.91 83.0465C2734.91 27.6822 2776.74 0 2831.39 0C2886.3 0 2928.13 27.6822 2956.88 83.0465C2985.63 137.938 3000 219.091 3000 326.508V777.94C3000 889.142 2985.88 975.737 2957.65 1037.73C2929.42 1099.24 2887.33 1130 2831.39 1130ZM2832.56 907.123C2845.51 907.123 2853.92 896.476 2857.81 875.182C2861.69 853.415 2863.64 827.389 2863.64 797.104V315.151C2863.64 292.91 2861.95 272.09 2858.59 252.688C2855.22 232.814 2846.8 222.877 2833.33 222.877C2820.12 222.877 2811.06 232.104 2806.14 250.559C2801.48 268.541 2799.15 290.781 2799.15 317.28V798.524C2799.15 831.175 2801.22 857.437 2805.36 877.312C2809.51 897.186 2818.57 907.123 2832.56 907.123Z" fill="white"/>
</svg>
